# xmcd
#
# Track frame offsets:
#	150
#	13382
#	26777
#	37187
#	46982
#	59047
#	69102
#	78348
#	90519
#	99630
#	108572
#	118937
#	128504
#	140393
#	150557
#	162428
#	173438
#	186901
#	199072
#	211321
#
# Disc length: 2948 seconds
#
# Revision: 1
# Processed by: cddbd v1.5.2PL0 Copyright (c) Steve Scherf et al.
# Submitted via: audiograbber 1.83.01
#
DISCID=170b8214
DTITLE=Pat Boone - Greatest Hits
DYEAR=1961
DGENRE=Oldies
TTITLE0=Anastasia
TTITLE1=Chains of Love
TTITLE2=There´s a Goldmine in the Sky
TTITLE3=Bernadine
TTITLE4=It´s too soon to know
TTITLE5=Long Tall Sally
TTITLE6=At my Frontdoor
TTITLE7=If Dreams come true
TTITLE8=Why Baby why
TTITLE9=Sugar Moon
TTITLE10=Remember you´re mine
TTITLE11=A wonderful Time up there
TTITLE12=Speedy Gonzales
TTITLE13=Don´t forbid me
TTITLE14=I almost lost my Mind
TTITLE15=Ain´t that a Shame
TTITLE16=I´ll be home
TTITLE17=April Love
TTITLE18=Moody River
TTITLE19=Love Letters in the Sand
EXTD=
EXTT0=
EXTT1=
EXTT2=
EXTT3=
EXTT4=
EXTT5=
EXTT6=
EXTT7=
EXTT8=
EXTT9=
EXTT10=
EXTT11=
EXTT12=
EXTT13=
EXTT14=
EXTT15=
EXTT16=
EXTT17=
EXTT18=
EXTT19=
PLAYORDER=
